<svg width="275" height="40" viewBox="0 0 275 40" fill="none" xmlns="http://www.w3.org/2000/svg">
<path d="M104.872 30.8877C103.749 30.4046 102.769 29.6412 102.025 28.6704C101.341 27.779 100.94 26.7016 100.877 25.5789H105.557C105.601 25.9293 105.716 26.267 105.896 26.5705C106.076 26.874 106.318 27.1367 106.605 27.342C107.263 27.8217 108.063 28.0666 108.877 28.0376C109.607 28.0817 110.333 27.8959 110.952 27.5063C111.182 27.361 111.37 27.1598 111.501 26.9216C111.632 26.6834 111.7 26.4159 111.7 26.144C111.699 25.8546 111.612 25.572 111.45 25.3327C111.287 25.0934 111.057 24.9082 110.788 24.8011C109.854 24.3928 108.885 24.0694 107.893 23.835C106.743 23.5736 105.614 23.2281 104.515 22.8013C103.641 22.452 102.865 21.893 102.257 21.1734C101.582 20.3408 101.238 19.2879 101.292 18.217C101.285 17.2171 101.592 16.2403 102.17 15.4249C102.81 14.5392 103.684 13.85 104.694 13.4347C105.915 12.9217 107.23 12.6716 108.554 12.7005C110.745 12.7005 112.493 13.2496 113.799 14.3477C114.448 14.8949 114.975 15.5722 115.347 16.336C115.719 17.0999 115.926 17.9332 115.956 18.7822H111.512C111.49 18.4434 111.397 18.1129 111.239 17.8124C111.081 17.5119 110.862 17.2482 110.595 17.0384C109.967 16.5788 109.2 16.3501 108.424 16.3911C107.747 16.358 107.075 16.526 106.494 16.8741C106.278 17.0126 106.102 17.2047 105.983 17.4316C105.864 17.6585 105.805 17.9125 105.813 18.1687C105.811 18.4705 105.898 18.7662 106.064 19.0182C106.23 19.2702 106.467 19.4672 106.744 19.5841C107.673 20.0062 108.644 20.33 109.64 20.5502C110.758 20.8158 111.856 21.1596 112.926 21.5791C113.795 21.9374 114.565 22.5009 115.169 23.2215C115.826 24.0581 116.168 25.0997 116.134 26.1634C116.147 27.1858 115.838 28.1863 115.251 29.0231C114.615 29.9069 113.742 30.592 112.733 30.9988C111.517 31.4994 110.211 31.7428 108.896 31.7137C107.512 31.729 106.139 31.4474 104.872 30.8877Z" fill="white"/>
<path d="M125.385 16.8114V25.719C125.363 25.9618 125.391 26.2066 125.468 26.4378C125.546 26.669 125.67 26.8816 125.834 27.0619C126.269 27.3824 126.807 27.5304 127.345 27.4773H129.501V31.3998H126.582C122.664 31.3998 120.705 29.4949 120.705 25.6852V16.8114H118.08V12.9904H120.705V8.43994H125.385V12.9904H129.501V16.8114H125.385Z" fill="white"/>
<path d="M149.795 23.5936H136.371C136.415 24.7754 136.915 25.8941 137.766 26.7142C138.588 27.4691 139.671 27.8744 140.786 27.8446C141.554 27.8913 142.317 27.7033 142.976 27.3056C143.634 26.9079 144.156 26.3192 144.473 25.6177H149.481C148.966 27.3678 147.896 28.9023 146.432 29.9893C144.825 31.1614 142.874 31.7632 140.888 31.6994C139.225 31.7273 137.583 31.321 136.125 30.5207C134.73 29.7479 133.588 28.589 132.834 27.1828C132.028 25.647 131.623 23.9321 131.657 22.1976C131.618 20.4534 132.017 18.7273 132.82 17.1786C133.557 15.7768 134.687 14.6215 136.072 13.8552C137.541 13.0957 139.17 12.6966 140.823 12.6907C142.477 12.6849 144.108 13.0724 145.583 13.8213C146.945 14.5528 148.064 15.6679 148.801 17.0289C149.587 18.4928 149.983 20.1349 149.949 21.7966C149.949 22.3989 149.897 23.0001 149.795 23.5936ZM145.115 20.4682C145.125 19.9232 145.014 19.3826 144.791 18.8855C144.567 18.3885 144.236 17.9474 143.821 17.594C142.96 16.8661 141.86 16.481 140.733 16.512C139.671 16.4856 138.638 16.8597 137.838 17.5602C137.02 18.3185 136.506 19.3486 136.391 20.4586L145.115 20.4682Z" fill="white"/>
<path d="M157.996 6.81274V31.4005H153.35V6.81274H157.996Z" fill="white"/>
<path d="M166.117 6.81274V31.4005H161.471V6.81274H166.117Z" fill="white"/>
<path d="M66.7656 17.0775C67.7803 17.0765 68.7724 17.3769 69.6166 17.9405C70.4607 18.5042 71.1189 19.3058 71.5078 20.244C71.8968 21.1822 71.9991 22.2148 71.8017 23.2112C71.6043 24.2076 71.1162 25.123 70.399 25.8416C69.6819 26.5603 68.768 27.0498 67.7729 27.2483C66.7778 27.4468 65.7462 27.3454 64.8087 26.9569C63.8712 26.5684 63.0698 25.9103 62.506 25.0657C61.9421 24.2212 61.6412 23.2282 61.6412 22.2124C61.6425 20.8518 62.1826 19.5472 63.1432 18.5846C64.1038 17.622 65.4065 17.08 66.7656 17.0775ZM66.7656 12.7058C64.8875 12.7058 63.0515 13.2634 61.4899 14.308C59.9282 15.3526 58.7111 16.8373 57.9924 18.5744C57.2736 20.3115 57.0856 22.223 57.452 24.0671C57.8184 25.9112 58.7228 27.6051 60.0509 28.9346C61.3789 30.2641 63.071 31.1695 64.913 31.5364C66.7551 31.9032 68.6644 31.7149 70.3996 30.9954C72.1348 30.2758 73.6179 29.0574 74.6613 27.494C75.7047 25.9307 76.2617 24.0926 76.2617 22.2124C76.2617 19.6911 75.2612 17.2731 73.4803 15.4902C71.6995 13.7074 69.2841 12.7058 66.7656 12.7058Z" fill="white"/>
<path d="M97.3876 17.1597C96.7047 15.7988 95.6572 14.6548 94.3622 13.8556C93.0791 13.0752 91.6027 12.6718 90.1015 12.6914C88.8479 12.6689 87.6087 12.9611 86.4971 13.5416C85.5224 14.035 84.6764 14.7496 84.0265 15.6284V12.9716H79.375V39.0229L84.0265 37.7718V28.7773C84.701 29.6469 85.5553 30.3604 86.5308 30.8689C87.6326 31.4412 88.8605 31.7269 90.1015 31.6998C91.6073 31.7194 93.0868 31.3034 94.3622 30.5018C95.6628 29.6755 96.7099 28.5052 97.3876 27.1204C98.1506 25.5663 98.5311 23.852 98.4974 22.1207C98.5319 20.4017 98.1512 18.6998 97.3876 17.1597ZM93.069 25.0529C92.6535 25.834 92.035 26.4882 91.2789 26.9465C90.5515 27.3872 89.7165 27.618 88.8662 27.6131C88.0313 27.6136 87.2115 27.3901 86.4922 26.9658C85.7354 26.5147 85.1163 25.8649 84.7021 25.0867C84.2524 24.1868 84.0182 23.1945 84.0182 22.1883C84.0182 21.1822 84.2524 20.1898 84.7021 19.29C85.1154 18.5124 85.7348 17.8639 86.4922 17.4157C87.2102 16.9877 88.0306 16.7624 88.8662 16.7636C89.7119 16.7592 90.5439 16.9774 91.2789 17.3964C92.0351 17.8333 92.6549 18.4722 93.069 19.2417C93.5399 20.1249 93.7743 21.1151 93.7494 22.1159C93.7793 23.1372 93.5449 24.149 93.069 25.0529Z" fill="white"/>
<path d="M183.959 28.7091V31.6993L188.64 30.4385V12.9904H183.959V15.6279C183.304 14.7521 182.459 14.0356 181.489 13.5314C180.375 12.9586 179.136 12.6731 177.884 12.7005C176.382 12.6816 174.904 13.0849 173.619 13.8647C172.323 14.6699 171.277 15.8208 170.598 17.1882C169.837 18.7256 169.456 20.4238 169.488 22.1395C169.455 23.8708 169.835 25.5851 170.598 27.1392C171.276 28.5227 172.321 29.6927 173.619 30.5206C174.887 31.319 176.358 31.7349 177.855 31.7186C179.118 31.7448 180.367 31.4542 181.489 30.8732C182.475 30.3626 183.323 29.62 183.959 28.7091ZM176.721 26.946C175.963 26.4847 175.344 25.825 174.931 25.0379C174.464 24.1447 174.23 23.1476 174.251 22.1395C174.226 21.1387 174.46 20.1485 174.931 19.2653C175.333 18.5106 175.933 17.8805 176.667 17.4436C177.402 17.0067 178.241 16.7796 179.095 16.7872C179.943 16.7857 180.776 17.0109 181.508 17.4394C182.27 17.8774 182.892 18.5221 183.303 19.2991C183.735 20.2041 183.96 21.1944 183.96 22.1975C183.96 23.2006 183.735 24.1909 183.303 25.0958C182.889 25.8708 182.268 26.5149 181.508 26.9556C180.775 27.3796 179.942 27.6029 179.095 27.6029C178.249 27.6117 177.417 27.3842 176.692 26.946H176.721Z" fill="white"/>
<path d="M44.5706 15.8746C44.2043 16.1111 43.9102 16.444 43.7204 16.8368C43.5306 17.2296 43.4525 17.6672 43.4946 18.1015C44.3487 27.6612 33.6173 34.0424 25.6412 28.6805C25.2343 28.4162 24.764 28.2661 24.2794 28.2457C23.7948 28.2253 23.3136 28.3354 22.886 28.5645C21.2004 29.4534 19.6724 30.2343 18.302 30.9074C31.6342 45.8822 55.5094 31.9508 49.034 12.9617C47.5124 13.9729 46.0246 14.9439 44.5706 15.8746ZM59.9824 3.14597C59.6977 2.66291 55.6397 4.26667 49.5117 7.28579C48.7379 7.61319 47.8836 7.69982 47.06 7.5344C46.2364 7.36898 45.4816 6.95916 44.8939 6.35831C31.7693 -6.70844 9.87717 5.93322 14.5818 23.8402C14.7854 24.605 14.7767 25.411 14.5564 26.1712C14.3362 26.9314 13.9129 27.6169 13.332 28.1539C-8.52627 42.8196 13.8483 32.3034 33.2892 21.1689C48.6528 12.2951 60.4649 3.98166 59.9824 3.14597ZM31.0937 18.1498C27.3928 20.2849 23.9765 22.135 21.3709 23.4345C16.6277 10.9812 32.6668 1.69679 41.082 12.0149C38.6259 13.667 35.0939 15.8504 31.0937 18.1498Z" fill="url(#paint0_linear_4238_5575)"/>
<path d="M192.158 21.5962C192.158 19.7526 192.536 18.1201 193.291 16.6985C194.068 15.277 195.112 14.1775 196.423 13.4001C197.755 12.6005 199.233 12.2007 200.854 12.2007C202.053 12.2007 203.231 12.4672 204.386 13.0003C205.563 13.5112 206.496 14.1997 207.184 15.066V6.20361H211.016V30.8583H207.184V28.093C206.562 28.9815 205.696 29.7145 204.586 30.292C203.497 30.8694 202.242 31.1582 200.821 31.1582C199.221 31.1582 197.755 30.7584 196.423 29.9588C195.112 29.137 194.068 28.0042 193.291 26.5604C192.536 25.0945 192.158 23.4397 192.158 21.5962ZM207.184 21.6628C207.184 20.3967 206.918 19.2973 206.385 18.3644C205.874 17.4315 205.196 16.7207 204.352 16.2321C203.508 15.7434 202.598 15.4991 201.62 15.4991C200.643 15.4991 199.732 15.7434 198.888 16.2321C198.044 16.6985 197.356 17.3982 196.823 18.3311C196.312 19.2417 196.056 20.3301 196.056 21.5962C196.056 22.8622 196.312 23.9728 196.823 24.9279C197.356 25.883 198.044 26.6159 198.888 27.1268C199.755 27.6155 200.665 27.8598 201.62 27.8598C202.598 27.8598 203.508 27.6155 204.352 27.1268C205.196 26.6382 205.874 25.9274 206.385 24.9945C206.918 24.0394 207.184 22.9288 207.184 21.6628Z" fill="#7F7F7F"/>
<path d="M223.516 31.1579C221.783 31.1579 220.217 30.7692 218.818 29.9918C217.419 29.1922 216.319 28.0816 215.52 26.6601C214.72 25.2164 214.32 23.5505 214.32 21.6625C214.32 19.7968 214.731 18.142 215.553 16.6983C216.375 15.2545 217.497 14.1439 218.918 13.3665C220.34 12.5891 221.928 12.2004 223.682 12.2004C225.437 12.2004 227.025 12.5891 228.447 13.3665C229.868 14.1439 230.99 15.2545 231.812 16.6983C232.634 18.142 233.045 19.7968 233.045 21.6625C233.045 23.5283 232.623 25.183 231.779 26.6268C230.934 28.0705 229.779 29.1922 228.314 29.9918C226.87 30.7692 225.271 31.1579 223.516 31.1579ZM223.516 27.8595C224.493 27.8595 225.404 27.6263 226.248 27.1599C227.114 26.6934 227.814 25.9938 228.347 25.0609C228.88 24.128 229.146 22.9952 229.146 21.6625C229.146 20.3298 228.891 19.2082 228.38 18.2975C227.869 17.3646 227.192 16.6649 226.348 16.1985C225.504 15.7321 224.593 15.4988 223.616 15.4988C222.639 15.4988 221.728 15.7321 220.884 16.1985C220.062 16.6649 219.407 17.3646 218.918 18.2975C218.429 19.2082 218.185 20.3298 218.185 21.6625C218.185 23.6393 218.685 25.1719 219.684 26.2603C220.706 27.3264 221.983 27.8595 223.516 27.8595Z" fill="#7F7F7F"/>
<path d="M235.42 21.6625C235.42 19.7745 235.798 18.1198 236.553 16.6983C237.33 15.2545 238.396 14.1439 239.751 13.3665C241.106 12.5891 242.661 12.2004 244.416 12.2004C246.637 12.2004 248.469 12.7335 249.913 13.7997C251.379 14.8436 252.367 16.3429 252.878 18.2975H248.78C248.447 17.3868 247.914 16.676 247.181 16.1652C246.448 15.6543 245.526 15.3989 244.416 15.3989C242.861 15.3989 241.617 15.9542 240.684 17.0647C239.773 18.1531 239.318 19.6857 239.318 21.6625C239.318 23.6393 239.773 25.183 240.684 26.2936C241.617 27.4042 242.861 27.9595 244.416 27.9595C246.615 27.9595 248.069 26.9933 248.78 25.0609H252.878C252.345 26.9266 251.346 28.4148 249.88 29.5254C248.414 30.6137 246.592 31.1579 244.416 31.1579C242.661 31.1579 241.106 30.7692 239.751 29.9918C238.396 29.1922 237.33 28.0816 236.553 26.6601C235.798 25.2164 235.42 23.5505 235.42 21.6625Z" fill="#7F7F7F"/>
<path d="M263.366 31.1579C261.922 31.1579 260.623 30.9025 259.468 30.3916C258.335 29.8586 257.436 29.1478 256.769 28.2593C256.103 27.3487 255.748 26.338 255.703 25.2275H259.635C259.701 26.0049 260.068 26.6601 260.734 27.1932C261.423 27.704 262.278 27.9595 263.299 27.9595C264.366 27.9595 265.187 27.7596 265.765 27.3598C266.365 26.9377 266.664 26.4047 266.664 25.7605C266.664 25.072 266.331 24.5611 265.665 24.2279C265.021 23.8948 263.988 23.5283 262.566 23.1285C261.189 22.7509 260.068 22.3844 259.201 22.029C258.335 21.6736 257.58 21.1294 256.936 20.3965C256.314 19.6635 256.003 18.6973 256.003 17.4979C256.003 16.5206 256.292 15.6321 256.869 14.8325C257.447 14.0107 258.269 13.3665 259.335 12.9001C260.423 12.4337 261.667 12.2004 263.066 12.2004C265.154 12.2004 266.831 12.7335 268.097 13.7997C269.385 14.8436 270.074 16.2762 270.163 18.0976H266.365C266.298 17.2758 265.965 16.6205 265.365 16.1319C264.765 15.6432 263.955 15.3989 262.933 15.3989C261.933 15.3989 261.167 15.5877 260.634 15.9653C260.101 16.3429 259.834 16.8426 259.834 17.4646C259.834 17.9532 260.012 18.3641 260.368 18.6973C260.723 19.0305 261.156 19.297 261.667 19.4969C262.178 19.6746 262.933 19.9078 263.932 20.1966C265.265 20.5519 266.354 20.9184 267.198 21.296C268.064 21.6514 268.808 22.1845 269.43 22.8953C270.052 23.606 270.374 24.55 270.396 25.7272C270.396 26.7712 270.107 27.704 269.53 28.5259C268.952 29.3477 268.13 29.9918 267.064 30.4583C266.02 30.9247 264.788 31.1579 263.366 31.1579Z" fill="#7F7F7F"/>
<defs>
<linearGradient id="paint0_linear_4238_5575" x1="6.20034" y1="34.0473" x2="59.4812" y2="3.30346" gradientUnits="userSpaceOnUse">
<stop stop-color="#085DF4"/>
<stop offset="1" stop-color="#780FFF"/>
</linearGradient>
</defs>
</svg>
